<?xml version="1.0" encoding="UTF-8" standalone="no"?>
<!DOCTYPE svg PUBLIC "-//W3C//DTD SVG 1.1//EN" "http://www.w3.org/Graphics/SVG/1.1/DTD/svg11.dtd">
<svg width="100%" height="100%" viewBox="0 0 32 32" version="1.1" xmlns="http://www.w3.org/2000/svg" xmlns:xlink="http://www.w3.org/1999/xlink" xml:space="preserve" xmlns:serif="http://www.serif.com/" style="fill-rule:evenodd;clip-rule:evenodd;stroke-linejoin:round;stroke-miterlimit:1.41421;">
    <g transform="matrix(1.05981,0,0,1.05981,-0.956904,-0.628485)">
        <path d="M13.378,4.275C13.396,4.28 13.413,4.285 13.431,4.29L21.219,4.29C22.413,4.29 23.536,4.378 24.589,4.553C25.642,4.729 26.554,5.027 27.327,5.448C28.099,5.87 28.713,6.449 29.169,7.186C29.626,7.923 29.854,8.853 29.854,9.976C29.854,10.468 29.784,10.965 29.643,11.468C29.503,11.971 29.31,12.451 29.064,12.907C28.818,13.363 28.52,13.767 28.169,14.118C27.818,14.469 27.42,14.726 26.976,14.89L26.976,15.031C28.075,15.358 29.006,15.949 29.766,16.803C30.527,17.657 30.907,18.845 30.907,20.366C30.907,21.536 30.667,22.548 30.187,23.402C29.708,24.256 29.064,24.958 28.257,25.508C27.449,26.058 26.496,26.461 25.396,26.719C24.296,26.976 23.138,27.105 21.921,27.105L13.006,27.105L13.006,27.097L12.979,27.105L6.484,27.105C6.076,27.001 5.666,26.878 5.253,26.736C3.72,26.21 2.333,25.385 1.093,24.262L4.533,20.12C5.352,20.775 6.235,21.308 7.183,21.717C8.131,22.127 9.026,22.331 9.868,22.331C10.781,22.331 11.442,22.191 11.851,21.91C12.261,21.629 12.466,21.232 12.466,20.717C12.466,20.436 12.395,20.202 12.255,20.015C12.115,19.828 11.91,19.652 11.641,19.488C11.372,19.324 11.05,19.167 10.675,19.014C10.301,18.862 9.868,18.693 9.377,18.505L6.534,17.312C5.925,17.078 5.34,16.768 4.779,16.382C4.217,15.996 3.726,15.54 3.305,15.013C2.883,14.487 2.55,13.884 2.304,13.205C2.058,12.527 1.936,11.778 1.936,10.959C1.936,9.976 2.146,9.058 2.567,8.204C2.989,7.35 3.574,6.601 4.322,5.957C5.071,5.314 5.966,4.805 7.008,4.43C7.163,4.375 7.321,4.323 7.481,4.275L13.378,4.275ZM21.5,17.628L19.043,17.628L19.043,22.472L21.5,22.472C23.84,22.472 25.01,21.629 25.01,19.945C25.01,19.102 24.723,18.505 24.15,18.154C23.577,17.804 22.694,17.628 21.5,17.628ZM13.006,9.585C12.925,9.55 12.844,9.516 12.764,9.485C12.05,9.204 11.272,9.064 10.43,9.064C9.681,9.064 9.096,9.192 8.675,9.45C8.254,9.707 8.043,10.093 8.043,10.608C8.043,11.146 8.341,11.562 8.938,11.854C9.535,12.147 10.36,12.492 11.413,12.89L13.006,13.515L13.006,9.585ZM21.079,8.923L19.043,8.923L19.043,13.205L21.079,13.205C22.062,13.205 22.787,12.995 23.255,12.574C23.723,12.152 23.957,11.591 23.957,10.889C23.957,10.187 23.723,9.684 23.255,9.38C22.787,9.075 22.062,8.923 21.079,8.923Z" style="fill-rule:nonzero;"/>
    </g>
</svg>
